<?xml version="1.0" encoding="UTF-8"?>
<svg width="183px" height="21px" viewBox="0 0 183 21" version="1.1" xmlns="http://www.w3.org/2000/svg" xmlns:xlink="http://www.w3.org/1999/xlink">
    <!-- Generator: Sketch 46.1 (44463) - http://www.bohemiancoding.com/sketch -->
    <title>logo</title>
    <desc>Created with Sketch.</desc>
    <defs></defs>
    <g id="Page-1" stroke="none" stroke-width="1" fill="none" fill-rule="evenodd">
        <g id="logo" transform="translate(-58.000000, -84.000000)">
            <rect id="Rectangle-path" x="0" y="0" width="299.333333" height="188.166667"></rect>
            <path d="M58.377193,84.0701754 L99.0701754,84.0701754 C102.45614,84.1111111 104.616959,84.1929825 105.552632,84.3157895 C107.008538,84.4025411 108.311414,85.2489105 108.982456,86.5438596 C109.455818,87.672155 109.671582,88.8918197 109.614035,90.1140351 C109.633599,90.9953706 109.568978,91.8765611 109.421053,92.745614 C109.32635,93.2788349 109.093456,93.7778935 108.745614,94.1929825 C108.082923,94.8481597 107.228774,95.2752338 106.307018,95.4122807 C107.07934,95.5156302 107.798479,95.8629069 108.359649,96.4035088 C108.739019,96.8087457 108.994672,97.3139646 109.096491,97.8596491 C109.219736,98.8105922 109.272511,99.7693453 109.254386,100.72807 L121.447368,84.0614035 L122.938596,84.0614035 L134.842105,100.324561 L134.842105,84.0701754 L139.280702,84.0701754 L156.77193,101.614035 L157.385965,101.614035 L157.385965,84.0701754 L186.245614,84.0701754 L186.245614,86.1315789 L168.052632,101.754386 L191.736842,101.754386 L209.649123,86.4122807 L188.885965,86.4122807 L188.885965,84.0701754 L213.842105,84.0701754 L213.842105,86.1315789 L195.614035,101.754386 L222.368421,101.754386 C225.877193,101.754386 232.596491,101.938596 235.877193,101.359649 C236.947843,101.237052 237.793852,100.394674 237.921053,99.3245614 C238.177187,97.6412789 238.288705,95.9391543 238.254386,94.2368421 C238.298039,92.3868797 238.198326,90.536315 237.95614,88.7017544 C237.757395,87.5989996 236.813046,86.7864204 235.692982,86.754386 C234.820919,86.6277037 233.942259,86.5515532 233.061404,86.5263158 C232.096491,86.5263158 230.236842,86.4649123 227.491228,86.4649123 C225.438901,86.4168579 223.385942,86.5283043 221.350877,86.7982456 C220.752028,86.8592312 220.181502,87.0838003 219.701754,87.4473684 C219.313392,87.8604312 219.064816,88.3852019 218.991228,88.9473684 C218.729291,90.5622143 218.617702,92.1978753 218.657895,93.8333333 L218.657895,99.6403509 L215.929825,99.6403509 L215.929825,94.0438596 C215.828446,91.7697121 216.049947,89.4926751 216.587719,87.2807018 C217.112561,85.7021098 218.541698,84.5990385 220.201754,84.4912281 C223.131204,84.1623499 226.078964,84.0246314 229.026316,84.0789474 C231.437533,84.0253686 233.849593,84.1367396 236.245614,84.4122807 C237.373463,84.514361 238.442447,84.9615578 239.307018,85.6929825 C239.700068,86.0966229 239.999539,86.5817656 240.184211,87.1140351 C240.433521,87.8648508 240.59541,88.6419143 240.666667,89.4298246 C240.827843,91.0122631 240.901055,92.6024285 240.885965,94.1929825 C240.927131,96.0589066 240.8127,97.9250156 240.54386,99.7719298 C240.420863,100.791358 240.006674,101.753738 239.350877,102.54386 C238.546356,103.267184 237.532527,103.715727 236.45614,103.824561 C234.271879,104.103177 232.069793,104.217533 229.868421,104.166667 C228.523392,104.166667 227.046784,104.146199 225.438596,104.105263 L163.45614,104.105263 L163.45614,102.350877 L182.017544,86.4122807 L160.087719,86.4122807 L160.087719,104.070175 L155.578947,104.070175 L138.087719,86.5877193 L137.5,86.5877193 L137.5,104.070175 L134.649123,104.070175 L122.184211,87.2280702 L109.736842,104.070175 L106.578947,104.070175 L106.578947,102.157895 C106.578947,100.526316 106.54386,99.4005848 106.473684,98.7807018 C106.380329,97.622129 105.479538,96.6919245 104.324561,96.5614035 C103.833333,96.5 103.403509,96.4473684 103.017544,96.4385965 C102.631579,96.4298246 101.315789,96.4385965 99.0701754,96.4385965 L89.2807018,96.4385965 L89.2807018,104.114035 L86.6491228,104.114035 L86.6491228,94.0526316 L99.1052632,94.0526316 C101.736842,94.0526316 103.368421,94.0526316 104.105263,93.9473684 C104.724272,93.8979238 105.324056,93.7089917 105.859649,93.3947368 C106.54386,92.9385965 106.885965,91.8333333 106.885965,90.0701754 C106.885965,88.5526316 106.570175,87.5614035 105.929825,87.1140351 C105.347969,86.7634289 104.687464,86.5643725 104.008772,86.5350877 C103.131579,86.4473684 101.488304,86.4035088 99.0789474,86.4035088 L74.5614035,86.4035088 L74.5614035,104.061404 L71.9298246,104.061404 L71.9298246,86.4122807 L58.377193,86.4122807 L58.377193,84.0701754 Z" id="Shape" fill="#00CCFF"></path>
        </g>
    </g>
</svg>